# xmcd
#
# Track frame offsets: 
#        150
#        23268
#        42466
#        54436
#        68654
#        90276
#        114643
#        143608
#        168332
#
# Disc length: 2418 seconds
#
# Revision: 2
# Processed by: cddbd v1.5.1PL0 Copyright (c) Steve Scherf et al.
# Submitted via: ExactAudioCopy v0.95a3
#
DISCID=65097009
DTITLE=Alvin Lee - In flight [disc 1] Remastered 1998
DYEAR=1974
DGENRE=Rock
TTITLE0=Got To Keep Moving
TTITLE1=Going Through The Door
TTITLE2=Don't Be Cruel
TTITLE3=Money Money
TTITLE4=I'm Writing You A Letter
TTITLE5=You Need Love Love Love
TTITLE6=Freedom For The Stallion
TTITLE7=Every Blues You've Ever Heard
TTITLE8=All Life's Trials
EXTD=Heinz (2 CD's)
EXTT0=
EXTT1=
EXTT2=
EXTT3=
EXTT4=
EXTT5=
EXTT6=
EXTT7=
EXTT8=
PLAYORDER=
